<?xml version="1.0" encoding="UTF-8"?>
<svg viewBox="0 0 1000 486" xmlns="http://www.w3.org/2000/svg" role="img" aria-label="Three 20-year panels for one working asylum seeker. A, status quo: earnings rise to £31k, 20-year tax £59k, no charge. B, plus £10,000 charge: identical earnings and tax, only £3,312 of the charge repaid after 20 years. C, work rights at 3 months plus charge: earnings rise to £40k, 20-year tax £104k (£45k more than A), charge cleared by year 17." style="max-width:100%;height:auto;font-family:system-ui,-apple-system,'Segoe UI',sans-serif;">
  <rect x="0" y="0" width="1000" height="486" rx="8" fill="#ffffff"/>
  <line x1="330" y1="66" x2="352" y2="66" stroke="#2a78d6" stroke-width="2"/><text x="358" y="70" fill="#52514e" font-size="12">Gross earnings</text>
  <rect x="470" y="60" width="12" height="12" rx="2" fill="#1baf7a"/><text x="488" y="70" fill="#52514e" font-size="12">Income tax + NI paid</text>
  <rect x="628" y="60" width="12" height="12" rx="2" fill="#e34948"/><text x="646" y="70" fill="#52514e" font-size="12">£10k charge repaid</text>
  <text x="72" y="96" fill="#0b0b0b" font-size="13" font-weight="650">A · Status quo</text><text x="72" y="110" fill="#52514e" font-size="11">12-month work ban, no charge</text>
  <g stroke="#e1e0d9" stroke-width="1"><line x1="72" y1="380" x2="330" y2="380"/><line x1="72" y1="315.7" x2="330" y2="315.7"/><line x1="72" y1="251.4" x2="330" y2="251.4"/><line x1="72" y1="187.1" x2="330" y2="187.1"/><line x1="72" y1="122.9" x2="330" y2="122.9"/></g>
  <g fill="#898781" font-size="10.5" text-anchor="end"><text x="66" y="384">£0</text><text x="66" y="319">£10k</text><text x="66" y="255">£20k</text><text x="66" y="191">£30k</text><text x="66" y="127">£40k</text></g>
  <polygon fill="#1baf7a" fill-opacity="0.9" points="72.0,380.0 72.0,380.0 85.6,380.0 99.2,380.0 112.7,379.2 126.3,373.8 139.9,370.2 153.5,366.6 167.1,363.0 180.6,360.3 194.2,357.6 207.8,355.8 221.4,354.4 234.9,353.1 248.5,352.2 262.1,351.3 275.7,350.4 289.3,349.5 302.8,348.6 316.4,347.7 330.0,346.8 330.0,380.0"/>
  <polyline fill="none" stroke="#2a78d6" stroke-width="2" points="72.0,380.0 85.6,367.1 99.2,322.1 112.7,296.4 126.3,277.1 139.9,264.3 153.5,251.4 167.1,238.6 180.6,228.9 194.2,219.3 207.8,212.9 221.4,207.7 234.9,203.2 248.5,200.0 262.1,196.8 275.7,193.6 289.3,190.4 302.8,187.1 316.4,183.9 330.0,180.7"/>
  <g fill="#898781" font-size="10.5" text-anchor="middle"><text x="72" y="394">1</text><text x="126.3" y="394">5</text><text x="194.2" y="394">10</text><text x="262.1" y="394">15</text><text x="330" y="394">20</text></g>
  <text x="72" y="416" fill="#0b0b0b" font-size="12" font-weight="600">20-yr tax paid: £59k</text>
  <text x="72" y="432" fill="#52514e" font-size="11">No repayment charge.</text>
  <text x="392" y="96" fill="#0b0b0b" font-size="13" font-weight="650">B · + £10,000 charge</text><text x="392" y="110" fill="#52514e" font-size="11">Same ban, plus repayment</text>
  <g stroke="#e1e0d9" stroke-width="1"><line x1="392" y1="380" x2="650" y2="380"/><line x1="392" y1="315.7" x2="650" y2="315.7"/><line x1="392" y1="251.4" x2="650" y2="251.4"/><line x1="392" y1="187.1" x2="650" y2="187.1"/><line x1="392" y1="122.9" x2="650" y2="122.9"/></g>
  <polygon fill="#1baf7a" fill-opacity="0.9" points="392.0,380.0 392.0,380.0 405.6,380.0 419.2,380.0 432.7,379.2 446.3,373.8 459.9,370.2 473.5,366.6 487.1,363.0 500.6,360.3 514.2,357.6 527.8,355.8 541.4,354.4 554.9,353.1 568.5,352.2 582.1,351.3 595.7,350.4 609.3,349.5 622.8,348.6 636.4,347.7 650.0,346.8 650.0,380.0"/>
  <polygon fill="#e34948" fill-opacity="0.92" points="392.0,380.0 405.6,380.0 419.2,380.0 432.7,379.2 446.3,373.8 459.9,370.2 473.5,366.6 487.1,363.0 500.6,360.3 514.2,357.6 527.8,355.2 541.4,353.3 554.9,351.7 568.5,350.5 582.1,349.3 595.7,348.1 609.3,346.9 622.8,345.7 636.4,344.5 650.0,343.4 650.0,346.8 636.4,347.7 622.8,348.6 609.3,349.5 595.7,350.4 582.1,351.3 568.5,352.2 554.9,353.1 541.4,354.4 527.8,355.8 514.2,357.6 500.6,360.3 487.1,363.0 473.5,366.6 459.9,370.2 446.3,373.8 432.7,379.2 419.2,380.0 405.6,380.0 392.0,380.0"/>
  <polyline fill="none" stroke="#2a78d6" stroke-width="2" points="392.0,380.0 405.6,367.1 419.2,322.1 432.7,296.4 446.3,277.1 459.9,264.3 473.5,251.4 487.1,238.6 500.6,228.9 514.2,219.3 527.8,212.9 541.4,207.7 554.9,203.2 568.5,200.0 582.1,196.8 595.7,193.6 609.3,190.4 622.8,187.1 636.4,183.9 650.0,180.7"/>
  <g fill="#898781" font-size="10.5" text-anchor="middle"><text x="392" y="394">1</text><text x="446.3" y="394">5</text><text x="514.2" y="394">10</text><text x="582.1" y="394">15</text><text x="650" y="394">20</text></g>
  <text x="392" y="416" fill="#0b0b0b" font-size="12" font-weight="600">20-yr tax paid: £59k (same as A)</text>
  <text x="392" y="432" fill="#52514e" font-size="11">Charge repaid: only £3.3k of £10k —</text>
  <text x="392" y="446" fill="#52514e" font-size="11">£6.7k still owed after 20 years.</text>
  <text x="712" y="96" fill="#0b0b0b" font-size="13" font-weight="650">C · Work rights at 3 months + charge</text><text x="712" y="110" fill="#52514e" font-size="11">Earlier work, less scarring</text>
  <g stroke="#e1e0d9" stroke-width="1"><line x1="712" y1="380" x2="970" y2="380"/><line x1="712" y1="315.7" x2="970" y2="315.7"/><line x1="712" y1="251.4" x2="970" y2="251.4"/><line x1="712" y1="187.1" x2="970" y2="187.1"/><line x1="712" y1="122.9" x2="970" y2="122.9"/></g>
  <polygon fill="#1baf7a" fill-opacity="0.9" points="712.0,380.0 712.0,380.0 725.6,377.4 739.2,370.2 752.7,363.0 766.3,357.6 779.9,354.0 793.5,350.4 807.1,346.8 820.6,344.1 834.2,341.4 847.8,339.6 861.4,338.2 874.9,336.9 888.5,336.0 902.1,335.1 915.7,334.2 929.3,333.3 942.8,332.4 956.4,331.5 970.0,330.6 970.0,380.0"/>
  <polygon fill="#e34948" fill-opacity="0.92" points="712.0,380.0 725.6,377.4 739.2,370.2 752.7,363.0 766.3,357.6 779.9,352.9 793.5,348.1 807.1,343.4 820.6,339.8 834.2,336.2 847.8,333.8 861.4,331.9 874.9,330.3 888.5,329.1 902.1,327.9 915.7,326.7 929.3,325.9 942.8,332.4 956.4,331.5 970.0,330.6 970.0,330.6 956.4,331.5 942.8,332.4 929.3,333.3 915.7,334.2 902.1,335.1 888.5,336.0 874.9,336.9 861.4,338.2 847.8,339.6 834.2,341.4 820.6,344.1 807.1,346.8 793.5,350.4 779.9,354.0 766.3,357.6 752.7,363.0 739.2,370.2 725.6,377.4 712.0,380.0"/>
  <polyline fill="none" stroke="#2a78d6" stroke-width="2" points="712.0,335.0 725.6,290.0 739.2,264.3 752.7,238.6 766.3,219.3 779.9,206.4 793.5,193.6 807.1,180.7 820.6,171.1 834.2,161.4 847.8,155.0 861.4,149.9 874.9,145.4 888.5,142.1 902.1,138.9 915.7,135.7 929.3,132.5 942.8,129.3 956.4,126.1 970.0,122.9"/>
  <g fill="#898781" font-size="10.5" text-anchor="middle"><text x="712" y="394">1</text><text x="766.3" y="394">5</text><text x="834.2" y="394">10</text><text x="902.1" y="394">15</text><text x="970" y="394">20</text></g>
  <text x="712" y="416" fill="#0b0b0b" font-size="12" font-weight="600">20-yr tax paid: £104k (+£45k)</text>
  <text x="712" y="432" fill="#52514e" font-size="11">Charge cleared in full by year 17 —</text>
  <text x="712" y="446" fill="#52514e" font-size="11">and £45k more tax than the status quo.</text>
  <text x="72" y="470" fill="#898781" font-size="10.5">Illustrative, one working asylum seeker. Earnings follow the RIO trajectory shape; tax = income tax + employee NI (28% above £12,570); repayment = 9% above £25,000, capped at £10,000. Panel C reflects a 3-month start and reduced scarring. Independently checked.</text>
</svg>
