<?xml version="1.0" encoding="UTF-8"?>
<svg viewBox="0 0 880 486" xmlns="http://www.w3.org/2000/svg" role="img" aria-label="Two 40-year panels for one working asylum seeker at the 80th percentile of refugee earners. A, status quo: about £31k plateau, 40-year tax £177k, no charge. B, plus £10,000 charge: same earnings and tax; the £10,000 is repaid in full but only by year 28, worth about £5.4k in present value." style="max-width:100%;height:auto;font-family:system-ui,-apple-system,'Segoe UI',sans-serif;">
  <rect x="0" y="0" width="880" height="486" rx="8" fill="#ffffff"/>
  <line x1="180" y1="66" x2="208" y2="66" stroke="#2a78d6" stroke-width="2"/><text x="214" y="70" fill="#52514e" font-size="12">Gross earnings</text>
  <rect x="360" y="60" width="12" height="12" rx="2" fill="#1baf7a"/><text x="378" y="70" fill="#52514e" font-size="12">Income tax + NI paid</text>
  <rect x="560" y="60" width="12" height="12" rx="2" fill="#e34948"/><text x="578" y="70" fill="#52514e" font-size="12">£10k charge repaid</text>
  <text x="72" y="96" fill="#0b0b0b" font-size="13" font-weight="650">A · Status quo</text><text x="72" y="110" fill="#52514e" font-size="11">12-month work ban, no charge</text>
  <g stroke="#e1e0d9" stroke-width="1"><line x1="72" y1="380.0" x2="432" y2="380.0"/><line x1="72" y1="315.7" x2="432" y2="315.7"/><line x1="72" y1="251.4" x2="432" y2="251.4"/><line x1="72" y1="187.2" x2="432" y2="187.2"/><line x1="72" y1="122.9" x2="432" y2="122.9"/></g>
  <g fill="#898781" font-size="10.5" text-anchor="end"><text x="66" y="384.0">£0</text><text x="66" y="319.7">£10k</text><text x="66" y="255.4">£20k</text><text x="66" y="191.2">£30k</text><text x="66" y="126.9">£40k</text></g>
  <polygon fill="#1baf7a" fill-opacity="0.9" points="72.0,380.0 72.0,380.0 81.2,380.0 90.5,377.5 99.7,371.9 108.9,366.4 118.2,362.6 127.4,358.9 136.6,355.2 145.8,353.1 155.1,351.0 164.3,348.9 173.5,346.8 182.8,346.8 192.0,346.8 201.2,346.8 210.5,346.8 219.7,346.8 228.9,346.8 238.2,346.8 247.4,346.8 256.6,346.8 265.8,346.8 275.1,346.8 284.3,346.8 293.5,346.8 302.8,346.8 312.0,346.8 321.2,346.8 330.5,346.8 339.7,346.8 348.9,346.8 358.2,346.8 367.4,346.8 376.6,346.8 385.8,346.8 395.1,346.8 404.3,346.8 413.5,346.8 422.8,346.8 432.0,346.8 432.0,380.0"/>
  <polyline fill="none" stroke="#2a78d6" stroke-width="2" points="72.0,330.2 81.2,310.3 90.5,290.3 99.7,270.4 108.9,250.5 118.2,237.2 127.4,223.9 136.6,210.6 145.8,203.2 155.1,195.7 164.3,188.2 173.5,180.7 182.8,180.7 192.0,180.7 201.2,180.7 210.5,180.7 219.7,180.7 228.9,180.7 238.2,180.7 247.4,180.7 256.6,180.7 265.8,180.7 275.1,180.7 284.3,180.7 293.5,180.7 302.8,180.7 312.0,180.7 321.2,180.7 330.5,180.7 339.7,180.7 348.9,180.7 358.2,180.7 367.4,180.7 376.6,180.7 385.8,180.7 395.1,180.7 404.3,180.7 413.5,180.7 422.8,180.7 432.0,180.7"/>
  <g fill="#898781" font-size="10.5" text-anchor="middle"><text x="72.0" y="394">1</text><text x="155.1" y="394">10</text><text x="247.4" y="394">20</text><text x="339.7" y="394">30</text><text x="432.0" y="394">40</text></g>
  <text x="72" y="416" fill="#0b0b0b" font-size="12" font-weight="600">40-yr tax paid: £177k</text>
  <text x="72" y="431" fill="#52514e" font-size="11">No repayment charge.</text>
  <text x="496" y="96" fill="#0b0b0b" font-size="13" font-weight="650">B · + £10,000 charge</text><text x="496" y="110" fill="#52514e" font-size="11">Same earnings, plus repayment</text>
  <g stroke="#e1e0d9" stroke-width="1"><line x1="496" y1="380.0" x2="856" y2="380.0"/><line x1="496" y1="315.7" x2="856" y2="315.7"/><line x1="496" y1="251.4" x2="856" y2="251.4"/><line x1="496" y1="187.2" x2="856" y2="187.2"/><line x1="496" y1="122.9" x2="856" y2="122.9"/></g>
  <polygon fill="#1baf7a" fill-opacity="0.9" points="496.0,380.0 496.0,380.0 505.2,380.0 514.5,377.5 523.7,371.9 532.9,366.4 542.2,362.6 551.4,358.9 560.6,355.2 569.8,353.1 579.1,351.0 588.3,348.9 597.5,346.8 606.8,346.8 616.0,346.8 625.2,346.8 634.5,346.8 643.7,346.8 652.9,346.8 662.2,346.8 671.4,346.8 680.6,346.8 689.8,346.8 699.1,346.8 708.3,346.8 717.5,346.8 726.8,346.8 736.0,346.8 745.2,346.8 754.5,346.8 763.7,346.8 772.9,346.8 782.2,346.8 791.4,346.8 800.6,346.8 809.8,346.8 819.1,346.8 828.3,346.8 837.5,346.8 846.8,346.8 856.0,346.8 856.0,380.0"/>
  <polygon fill="#e34948" fill-opacity="0.92" points="496.0,380.0 505.2,380.0 514.5,377.5 523.7,371.9 532.9,366.4 542.2,362.6 551.4,358.9 560.6,354.4 569.8,351.7 579.1,348.9 588.3,346.1 597.5,343.4 606.8,343.4 616.0,343.4 625.2,343.4 634.5,343.4 643.7,343.4 652.9,343.4 662.2,343.4 671.4,343.4 680.6,343.4 689.8,343.4 699.1,343.4 708.3,343.4 717.5,343.4 726.8,343.4 736.0,343.4 745.2,345.2 754.5,346.8 763.7,346.8 772.9,346.8 782.2,346.8 791.4,346.8 800.6,346.8 809.8,346.8 819.1,346.8 828.3,346.8 837.5,346.8 846.8,346.8 856.0,346.8 856.0,346.8 846.8,346.8 837.5,346.8 828.3,346.8 819.1,346.8 809.8,346.8 800.6,346.8 791.4,346.8 782.2,346.8 772.9,346.8 763.7,346.8 754.5,346.8 745.2,346.8 736.0,346.8 726.8,346.8 717.5,346.8 708.3,346.8 699.1,346.8 689.8,346.8 680.6,346.8 671.4,346.8 662.2,346.8 652.9,346.8 643.7,346.8 634.5,346.8 625.2,346.8 616.0,346.8 606.8,346.8 597.5,346.8 588.3,348.9 579.1,351.0 569.8,353.1 560.6,355.2 551.4,358.9 542.2,362.6 532.9,366.4 523.7,371.9 514.5,377.5 505.2,380.0 496.0,380.0"/>
  <polyline fill="none" stroke="#2a78d6" stroke-width="2" points="496.0,330.2 505.2,310.3 514.5,290.3 523.7,270.4 532.9,250.5 542.2,237.2 551.4,223.9 560.6,210.6 569.8,203.2 579.1,195.7 588.3,188.2 597.5,180.7 606.8,180.7 616.0,180.7 625.2,180.7 634.5,180.7 643.7,180.7 652.9,180.7 662.2,180.7 671.4,180.7 680.6,180.7 689.8,180.7 699.1,180.7 708.3,180.7 717.5,180.7 726.8,180.7 736.0,180.7 745.2,180.7 754.5,180.7 763.7,180.7 772.9,180.7 782.2,180.7 791.4,180.7 800.6,180.7 809.8,180.7 819.1,180.7 828.3,180.7 837.5,180.7 846.8,180.7 856.0,180.7"/>
  <g fill="#898781" font-size="10.5" text-anchor="middle"><text x="496.0" y="394">1</text><text x="579.1" y="394">10</text><text x="671.4" y="394">20</text><text x="763.7" y="394">30</text><text x="856.0" y="394">40</text></g>
  <text x="496" y="416" fill="#0b0b0b" font-size="12" font-weight="600">40-yr tax paid: £177k (same as A)</text>
  <text x="496" y="431" fill="#52514e" font-size="11">Charge repaid in full — but only by year 28,</text>
  <text x="496" y="446" fill="#52514e" font-size="11">worth ~£5.4k in today's money.</text>
  <text x="72" y="466" fill="#898781" font-size="10.5">One working asylum seeker at the 80th percentile of all refugee earners (~£31k plateau) — only the top ~fifth ever repay the charge in full.</text>
  <text x="72" y="479" fill="#898781" font-size="10.5">Earnings follow the RIO ramp; tax = income tax + NI (28% above £12,570); charge = 9% above £25,000, capped at £10,000, over 40 years.</text>
</svg>
